<svg xmlns="http://www.w3.org/2000/svg" width="13.812" height="13.91" viewBox="0 0 13.812 13.91">
  <metadata><?xpacket begin="﻿" id="W5M0MpCehiHzreSzNTczkc9d"?>
<x:xmpmeta xmlns:x="adobe:ns:meta/" x:xmptk="Adobe XMP Core 5.6-c140 79.160451, 2017/05/06-01:08:21        ">
   <rdf:RDF xmlns:rdf="http://www.w3.org/1999/02/22-rdf-syntax-ns#">
      <rdf:Description rdf:about=""/>
   </rdf:RDF>
</x:xmpmeta>
                                                                                                    
                                                                                                    
                                                                                                    
                                                                                                    
                                                                                                    
                                                                                                    
                                                                                                    
                                                                                                    
                                                                                                    
                                                                                                    
                                                                                                    
                                                                                                    
                                                                                                    
                                                                                                    
                                                                                                    
                                                                                                    
                                                                                                    
                                                                                                    
                                                                                                    
                                                                                                    
                           
<?xpacket end="w"?></metadata>
<defs>
    <style>
      .cls-1 {
        fill: #464646;
        fill-rule: evenodd;
      }
    </style>
  </defs>
  <path id="link" class="cls-1" d="M367.527,7745.09a0.98,0.98,0,0,0-1.4,0l-1.771,1.78-0.375-.38a3.034,3.034,0,0,0-4.191,0l-4.121,4.15a2.994,2.994,0,0,0,0,4.21l0.374,0.38-1.771,1.78a0.992,0.992,0,1,0,1.4,1.41l1.771-1.78,0.375,0.37a2.959,2.959,0,0,0,4.191,0l4.121-4.14a3,3,0,0,0,0-4.22l-0.374-.38,1.771-1.78A0.991,0.991,0,0,0,367.527,7745.09Zm-2.794,4.96a1.009,1.009,0,0,1,0,1.41l-4.121,4.15a1.018,1.018,0,0,1-1.4,0l-0.375-.38,0.784-.79a0.991,0.991,0,0,0,0-1.4,0.98,0.98,0,0,0-1.4,0l-0.784.78-0.374-.37a1.009,1.009,0,0,1,0-1.41l4.122-4.14a0.985,0.985,0,0,1,1.4,0l0.375,0.37-0.784.79a0.992,0.992,0,1,0,1.4,1.41l0.784-.79Z" transform="translate(-354 -7744.81)"/>
</svg>
