<svg xmlns="http://www.w3.org/2000/svg" width="10" height="10" viewBox="0 0 10 10">
  <metadata><?xpacket begin="﻿" id="W5M0MpCehiHzreSzNTczkc9d"?>
<x:xmpmeta xmlns:x="adobe:ns:meta/" x:xmptk="Adobe XMP Core 5.6-c140 79.160451, 2017/05/06-01:08:21        ">
   <rdf:RDF xmlns:rdf="http://www.w3.org/1999/02/22-rdf-syntax-ns#">
      <rdf:Description rdf:about=""/>
   </rdf:RDF>
</x:xmpmeta>
                                                                                                    
                                                                                                    
                                                                                                    
                                                                                                    
                                                                                                    
                                                                                                    
                                                                                                    
                                                                                                    
                                                                                                    
                                                                                                    
                                                                                                    
                                                                                                    
                                                                                                    
                                                                                                    
                                                                                                    
                                                                                                    
                                                                                                    
                                                                                                    
                                                                                                    
                                                                                                    
                           
<?xpacket end="w"?></metadata>
<defs>
    <style>
      .cls-1 {
        fill: #464646;
        fill-rule: evenodd;
      }
    </style>
  </defs>
  <path id="phone_icon" data-name="phone icon" class="cls-1" d="M350.91,8984a7.874,7.874,0,0,1-5.449-2.42l-0.031-.03a7.79,7.79,0,0,1-2.424-5.59l0-.14,0.089-.11a4.607,4.607,0,0,1,.417-0.48,5.349,5.349,0,0,1,1.83-1.19,0.827,0.827,0,0,1,.281-0.05,0.988,0.988,0,0,1,.889.49c0.235,0.65.532,1.5,0.749,2.32a1.038,1.038,0,0,1-.319.98l-0.763.49a0.623,0.623,0,0,0,.1.26,11.266,11.266,0,0,0,1.018,1.19,11.965,11.965,0,0,0,1.184,1.01,0.5,0.5,0,0,0,.239.09,0.129,0.129,0,0,0,.043-0.01l0.464-.74a1.024,1.024,0,0,1,.8-0.34,0.452,0.452,0,0,1,.168.02,10.547,10.547,0,0,1,2.37.76,1.027,1.027,0,0,1,.4,1.16,5.2,5.2,0,0,1-1.189,1.82,4.356,4.356,0,0,1-.476.42l-0.112.09H350.91Z" transform="translate(-343 -8974)"/>
</svg>
